<svg width="32" height="32" viewBox="0 0 32 32" fill="none" xmlns="http://www.w3.org/2000/svg">
<g id="Arrow icons">
<path id="Vector" d="M15.9999 19.9332C15.8221 19.9332 15.6555 19.9057 15.4999 19.8506C15.3444 19.7954 15.1999 19.7008 15.0666 19.5666L8.89992 13.3999C8.65548 13.1554 8.53903 12.8497 8.55059 12.4826C8.56214 12.1154 8.6897 11.8101 8.93325 11.5666C9.1777 11.3221 9.48881 11.1999 9.86659 11.1999C10.2444 11.1999 10.5555 11.3221 10.7999 11.5666L15.9999 16.7666L21.2333 11.5332C21.4777 11.2888 21.7835 11.1719 22.1506 11.1826C22.5177 11.1932 22.823 11.3212 23.0666 11.5666C23.311 11.811 23.4333 12.1221 23.4333 12.4999C23.4333 12.8777 23.311 13.1888 23.0666 13.4332L16.9333 19.5666C16.7999 19.6999 16.6555 19.7946 16.4999 19.8506C16.3444 19.9066 16.1777 19.9341 15.9999 19.9332Z" fill="#403D3D"/>
</g>
</svg>
