<svg width="86" height="156" viewBox="0 0 86 156" fill="none" xmlns="http://www.w3.org/2000/svg">
<g id="personal-site/rafiki">
<g id="Device">
<path id="Vector" d="M81.2612 0H4.7388C2.12163 0 0 2.13973 0 4.77922V151.221C0 153.86 2.12163 156 4.7388 156H81.2612C83.8784 156 86 153.86 86 151.221V4.77922C86 2.13973 83.8784 0 81.2612 0Z" fill="#263238"/>
<path id="Vector_2" d="M83.1285 5.22497V150.495C83.1285 150.776 83.0731 151.055 82.9653 151.315C82.8575 151.574 82.6996 151.81 82.5007 152.007C82.3018 152.205 82.066 152.361 81.8069 152.466C81.5478 152.57 81.2706 152.622 80.9915 152.618H4.84274C4.58922 152.621 4.33767 152.573 4.10312 152.475C3.86857 152.378 3.65583 152.235 3.47762 152.053C3.29941 151.871 3.15938 151.655 3.0659 151.417C2.97242 151.179 2.92741 150.925 2.93355 150.669V5.05035C2.9244 4.82483 2.9595 4.59972 3.03683 4.38792C3.11417 4.17613 3.23222 3.98182 3.38421 3.81615C3.5362 3.65049 3.71913 3.51672 3.9225 3.42254C4.12588 3.32836 4.3457 3.27562 4.56934 3.26733H23.6065C23.8729 3.27213 24.1317 3.35688 24.35 3.51076C24.5684 3.66465 24.7362 3.88068 24.8322 4.13127L25.6205 6.08891C25.7179 6.33777 25.8864 6.55186 26.1047 6.70403C26.3229 6.8562 26.581 6.9396 26.8462 6.94365H59.2568C59.5217 6.94345 59.7805 6.86324 59.9998 6.71335C60.2191 6.56346 60.3888 6.35077 60.4871 6.10269L61.2754 4.13586C61.3737 3.88649 61.542 3.67147 61.7598 3.51719C61.9775 3.36291 62.2351 3.27608 62.5011 3.26733H81.2649C81.7677 3.28294 82.2444 3.49664 82.5928 3.86261C82.9412 4.22858 83.1335 4.71766 83.1285 5.22497Z" fill="#E8B132"/>
<path id="Vector_3" opacity="0.3" d="M83.1271 12.3435H2.93213V142.968H83.1271V12.3435Z" fill="white"/>
<path id="Vector_4" d="M25.7843 57.6446C35.8125 57.6446 43.942 49.4458 43.942 39.3319C43.942 29.2181 35.8125 21.0193 25.7843 21.0193C15.756 21.0193 7.62646 29.2181 7.62646 39.3319C7.62646 49.4458 15.756 57.6446 25.7843 57.6446Z" fill="white"/>
<path id="Vector_5" opacity="0.6" d="M41.2138 4.57232C41.8228 4.57232 42.3165 4.07442 42.3165 3.46023C42.3165 2.84604 41.8228 2.34814 41.2138 2.34814C40.6048 2.34814 40.1111 2.84604 40.1111 3.46023C40.1111 4.07442 40.6048 4.57232 41.2138 4.57232Z" fill="white"/>
<path id="Vector_6" opacity="0.6" d="M44.5368 3.46035C44.5368 3.60123 44.4954 3.73894 44.4178 3.85608C44.3402 3.97321 44.2299 4.06451 44.1008 4.11842C43.9718 4.17233 43.8297 4.18643 43.6927 4.15895C43.5557 4.13147 43.4299 4.06363 43.3311 3.96401C43.2324 3.8644 43.1651 3.73748 43.1378 3.59931C43.1106 3.46114 43.1246 3.31792 43.178 3.18777C43.2315 3.05761 43.322 2.94637 43.4382 2.8681C43.5543 2.78984 43.6908 2.74806 43.8305 2.74806C43.9234 2.74745 44.0156 2.76546 44.1015 2.80104C44.1875 2.83662 44.2656 2.88906 44.3313 2.95533C44.397 3.02159 44.449 3.10036 44.4843 3.18705C44.5195 3.27374 44.5374 3.36664 44.5368 3.46035Z" fill="white"/>
<path id="Vector_7" opacity="0.6" d="M11.9788 9.12207H12.9675V7.7894H11.9788V9.12207Z" fill="white"/>
<path id="Vector_8" opacity="0.6" d="M10.3599 9.12207H11.3486V7.34825H10.3599V9.12207Z" fill="white"/>
<path id="Vector_9" opacity="0.6" d="M8.74463 9.12207H9.7334V6.90249H8.74463V9.12207Z" fill="white"/>
<path id="Vector_10" opacity="0.6" d="M7.13721 9.12207H8.12598V6.45674H7.13721V9.12207Z" fill="white"/>
<path id="Vector_11" opacity="0.6" d="M74.2602 7.302H73.6724V8.63467H74.2602V7.302Z" fill="white"/>
<path id="Vector_12" opacity="0.6" d="M74.6593 9.12207H79.3389V6.81977H74.6593V9.12207Z" fill="white"/>
<g id="group">
<path id="Vector_13" d="M28.126 36.2028C24.3623 36.2487 18.7259 36.5474 14.0417 37.7376C14.0417 37.7376 14.7298 41.2209 15.4771 45.9588C15.755 47.7234 16.0421 49.6351 16.3063 51.6525C16.3428 51.9512 16.3838 52.2499 16.4203 52.5716L16.4749 53.0311C16.5478 53.6331 16.6207 54.2397 16.6891 54.8417C16.6891 54.975 16.721 55.1082 16.7347 55.2415C19.3744 56.7676 22.3519 57.6006 25.394 57.664C28.436 57.7275 31.4452 57.0193 34.1452 55.6045C34.1087 49.4835 33.7351 41.7126 32.2998 36.3039C32.3043 36.2533 30.6321 36.1752 28.126 36.2028Z" fill="#E8B132"/>
<path id="Vector_14" opacity="0.6" d="M28.126 36.2028C24.3623 36.2487 18.7259 36.5474 14.0417 37.7376C14.0417 37.7376 14.7298 41.2209 15.4771 45.9588C15.755 47.7234 16.0421 49.6351 16.3063 51.6525C16.3428 51.9512 16.3838 52.2499 16.4203 52.5716L16.4749 53.0311C16.5478 53.6331 16.6207 54.2397 16.6891 54.8417C16.6891 54.975 16.721 55.1082 16.7347 55.2415C19.3744 56.7676 22.3519 57.6006 25.394 57.664C28.436 57.7275 31.4452 57.0193 34.1452 55.6045C34.1087 49.4835 33.7351 41.7126 32.2998 36.3039C32.3043 36.2533 30.6321 36.1752 28.126 36.2028Z" fill="white"/>
<path id="Vector_15" d="M20.1692 36.9519C21.6728 38.3305 25.35 37.8204 25.35 37.8204C25.35 37.8204 27.6282 37.1862 27.1726 36.4418C25.8056 36.2166 25.1631 35.5778 24.8943 34.7645C24.7487 34.2591 24.7022 33.7299 24.7576 33.2066C24.7576 32.9171 24.8214 32.623 24.8715 32.3335L20.315 28.9375C20.9119 31.1984 21.6409 35.3251 20.1692 36.9519Z" fill="#EBB376"/>
<path id="Vector_16" opacity="0.2" d="M21.3621 31.1157C21.5443 33.873 23.7861 34.6266 24.8843 34.792C24.7386 34.2867 24.6922 33.7575 24.7476 33.2342L21.3621 31.1157Z" fill="#081411"/>
<path id="Vector_17" d="M27.0186 21.8835C27.0186 21.8835 28.5769 25.9229 26.7315 28.0276C24.8861 30.1323 23.1592 22.3477 23.1592 22.3477L27.0186 21.8835Z" fill="#263238"/>
<path id="Vector_18" d="M21.0746 32.793C21.6899 33.3767 22.4778 33.7411 23.3179 33.8308C24.1579 33.9204 25.0039 33.7302 25.7268 33.2893C26.6696 32.7345 27.3683 31.8394 27.6815 30.7848C27.7271 30.6378 27.759 30.4907 27.7909 30.3253C28.3058 27.5221 27.6587 22.9727 24.6013 21.9019C23.9282 21.6617 23.2054 21.5991 22.5016 21.7203C21.7977 21.8415 21.1364 22.1424 20.5805 22.5943C20.0246 23.0463 19.5927 23.6342 19.3258 24.3021C19.059 24.97 18.9661 25.6957 19.056 26.41C19.3977 29.4843 19.4707 31.3041 21.0746 32.793Z" fill="#EBB376"/>
<path id="Vector_19" d="M23.7413 27.044C23.7413 27.2967 23.8917 27.5035 24.0557 27.5035C24.2197 27.5035 24.3382 27.2875 24.3291 27.044C24.32 26.8004 24.1742 26.5844 24.0101 26.6074C23.8461 26.6304 23.7276 26.7912 23.7413 27.044Z" fill="#263238"/>
<path id="Vector_20" d="M26.5494 26.9018C26.5494 27.15 26.7043 27.3614 26.8684 27.3614C27.0324 27.3614 27.1509 27.1408 27.1372 26.9018C27.1235 26.6629 26.9823 26.4423 26.8182 26.4653C26.6542 26.4883 26.5357 26.6629 26.5494 26.9018Z" fill="#263238"/>
<path id="Vector_21" d="M25.6575 27.0718C25.993 27.8228 26.43 28.5234 26.9561 29.1535C26.7914 29.2857 26.5999 29.3797 26.3952 29.429C26.1905 29.4782 25.9775 29.4814 25.7714 29.4384L25.6575 27.0718Z" fill="#D58745"/>
<path id="Vector_22" d="M22.8215 26.1754C22.8489 26.1771 22.8763 26.1717 22.9011 26.1596C22.9258 26.1475 22.9471 26.1292 22.9627 26.1064C23.0623 25.9511 23.1966 25.8215 23.3549 25.7281C23.5132 25.6348 23.691 25.5802 23.874 25.5688C23.8932 25.5688 23.9121 25.565 23.9298 25.5576C23.9475 25.5502 23.9636 25.5394 23.9771 25.5257C23.9907 25.512 24.0014 25.4958 24.0087 25.478C24.0161 25.4601 24.0198 25.441 24.0198 25.4217C24.0198 25.4024 24.0161 25.3833 24.0087 25.3654C24.0014 25.3476 23.9907 25.3314 23.9771 25.3177C23.9636 25.3041 23.9475 25.2932 23.9298 25.2858C23.9121 25.2785 23.8932 25.2747 23.874 25.2747C23.6433 25.2857 23.4184 25.3518 23.218 25.4677C23.0176 25.5835 22.8473 25.7458 22.7212 25.941C22.6992 25.973 22.6902 26.0123 22.6961 26.0508C22.7021 26.0893 22.7225 26.124 22.7531 26.1478C22.7745 26.1601 22.7975 26.1694 22.8215 26.1754Z" fill="#263238"/>
<path id="Vector_23" d="M27.7053 25.863C27.7335 25.8721 27.7638 25.8721 27.7919 25.863C27.8255 25.8445 27.8506 25.8134 27.8617 25.7764C27.8728 25.7394 27.869 25.6995 27.8511 25.6654C27.7439 25.4574 27.5885 25.2787 27.3981 25.1443C27.2077 25.0099 26.988 24.9238 26.7576 24.8933C26.7385 24.8907 26.7192 24.8922 26.7007 24.8977C26.6823 24.9032 26.6652 24.9125 26.6506 24.9251C26.636 24.9376 26.6242 24.9532 26.6159 24.9707C26.6076 24.9882 26.6031 25.0072 26.6026 25.0266C26.6012 25.0646 26.614 25.1018 26.6385 25.1307C26.663 25.1596 26.6973 25.1783 26.7348 25.1828C26.916 25.2123 27.0879 25.2842 27.2367 25.3927C27.3855 25.5013 27.5069 25.6434 27.5914 25.8078C27.6046 25.8256 27.6218 25.8399 27.6417 25.8495C27.6615 25.8591 27.6833 25.8637 27.7053 25.863Z" fill="#263238"/>
<path id="Vector_24" d="M21.1123 22.4714L21.4085 23.8041C21.1924 23.9356 21.0335 24.1444 20.9634 24.3889C20.8933 24.6333 20.9172 24.8955 21.0303 25.123C21.5725 26.2167 21.1077 28.0457 20.3104 28.8315C20.3104 28.8315 20.2375 28.3444 19.8547 28.5006C19.472 28.6568 19.8182 31.2119 20.7432 32.3561C19.5946 31.3166 18.7328 29.9945 18.2417 28.519C17.3623 26.0926 17.3304 24.2544 17.7177 23.2389L21.1123 22.4714Z" fill="#263238"/>
<path id="Vector_25" d="M17.862 29.0156C18.2379 29.688 18.8618 30.1835 19.5981 30.3942C20.5777 30.67 21.0698 29.7876 20.801 28.8502C20.555 28.023 19.7485 26.8512 18.7597 27.012C18.5454 27.0447 18.3427 27.131 18.1699 27.263C17.9972 27.395 17.8599 27.5685 17.7707 27.7677C17.6815 27.9668 17.6431 28.1854 17.659 28.4034C17.675 28.6213 17.7448 28.8318 17.862 29.0156Z" fill="#EBB376"/>
<path id="Vector_26" d="M21.4077 23.7952C21.4077 23.7952 24.7066 24.9763 26.5839 23.2208C28.4612 21.4654 26.2923 19.085 26.2923 19.085C25.8376 19.5583 25.2298 19.8518 24.579 19.9121C23.5265 19.9857 21.0978 19.3469 19.1431 20.3717C17.1883 21.3964 16.4547 24.218 18.2318 25.5047L21.4077 23.7952Z" fill="#263238"/>
<path id="Vector_27" d="M24.0269 29.8701C24.1973 30.1336 24.4485 30.3337 24.7422 30.4399C25.0359 30.5461 25.3559 30.5525 25.6535 30.4583" stroke="#263238" stroke-width="0.00359016" stroke-linecap="round" stroke-linejoin="round"/>
<path id="Vector_28" d="M26.8498 37.5812L26.3941 39.7641C26.3941 39.7641 28.9139 50.3656 29.4561 55.8479L28.5448 56.767L27.1004 55.8479C27.1004 55.8479 26.9728 44.649 25.697 39.9433L23.4187 38.0546L25.2413 37.4709L26.8498 37.5812Z" fill="#E8B132"/>
<path id="Vector_29" d="M20.683 34.8748L25.0527 36.86L25.3079 35.27L26.9163 35.8398C27.1934 35.9387 27.4299 36.128 27.5883 36.3777C27.7468 36.6274 27.8182 36.9232 27.7912 37.2184L27.6089 38.9693L25.3944 37.7561L24.2872 39.3323L19.0381 36.7818L20.683 34.8748Z" fill="#E8B132"/>
<path id="Vector_30" opacity="0.7" d="M20.683 34.8748L25.0527 36.86L25.3079 35.27L26.9163 35.8398C27.1934 35.9387 27.4299 36.128 27.5883 36.3777C27.7468 36.6274 27.8182 36.9232 27.7912 37.2184L27.6089 38.9693L25.3944 37.7561L24.2872 39.3323L19.0381 36.7818L20.683 34.8748Z" fill="white"/>
<path id="Vector_31" d="M32.3134 36.2533L27.2147 36.0051C28.0941 40.141 27.9255 50.6782 27.9255 50.6782C23.2642 39.8928 19.1405 36.5106 19.1405 36.5106L14.0417 37.7422C14.2605 40.573 15.3631 48.9963 16.156 54.8692C18.9122 56.6066 22.0804 57.5658 25.3298 57.6467C28.5791 57.7275 31.7903 56.927 34.6282 55.3288C35.0291 42.3422 32.3134 36.2533 32.3134 36.2533Z" fill="#263238"/>
<path id="Vector_32" opacity="0.1" d="M34.6709 50.908C34.4248 40.959 32.3152 36.2671 32.3152 36.2671L27.2164 36.0051C27.9682 39.5528 27.95 47.8245 27.9318 50.0946C27.9318 50.4668 27.9318 50.6736 27.9318 50.6736L27.6675 50.0625C23.111 39.7642 19.1513 36.506 19.1513 36.506L18.8005 36.5933L14.0571 37.7422C14.1802 39.346 14.5857 42.742 15.055 46.4734C15.2099 47.6545 15.3649 48.863 15.5107 50.0579C15.6565 51.2527 15.8114 52.305 15.9663 53.3665C16.0347 53.8904 16.103 54.3959 16.1714 54.8876C18.9288 56.6263 22.0987 57.5862 25.3497 57.667C28.6007 57.7479 31.8136 56.9467 34.6527 55.3472C34.6527 55.1312 34.6527 54.8876 34.6754 54.69C34.6997 53.339 34.6982 52.0783 34.6709 50.908Z" fill="white"/>
<path id="Vector_33" opacity="0.2" d="M29.8156 40.8257L30.9957 42.9212C30.9957 42.9212 29.77 50.9907 27.8061 53.7985V52.1304L20.1785 43.2613L21.5455 41.129L18.1053 41.8091C18.1053 41.8091 17.7863 38.5923 18.807 36.5933L19.1578 36.5106C19.1578 36.5106 23.2815 39.8974 27.9383 50.6782C27.9383 50.6782 28.1114 40.1364 27.232 36.0051C27.232 36.0051 29.6607 37.3332 31.3921 40.8257H29.8156Z" fill="white"/>
<path id="Vector_34" opacity="0.2" d="M34.6763 54.6532C34.6975 53.3236 34.6975 52.0706 34.6763 50.8942L27.9508 50.0946L27.6774 50.0624L23.4216 49.5569L17.7806 42.6362L15.5251 50.0348C15.6801 51.1653 15.8259 52.282 15.9808 53.3435C16.0491 53.8674 16.1175 54.3729 16.1858 54.8646C18.1923 56.1313 20.4265 56.987 22.7609 57.3829C25.0791 56.2531 27.328 54.984 29.4955 53.5825C31.6462 54.1247 33.3868 54.4556 34.6763 54.6532Z" fill="#081411"/>
<path id="Vector_35" d="M32.3178 36.2581C32.913 38.1504 33.3983 40.076 33.7714 42.0253C34.0996 43.7314 34.3369 45.4541 34.4822 47.1859L24.1571 50.6784L23.7014 52.659C23.7014 52.659 32.9922 53.7941 38.0636 52.8245C39.2253 51.745 40.2438 50.5186 41.0937 49.1757C39.9773 44.5849 34.309 36.7268 32.3178 36.2581Z" fill="#263238"/>
<path id="Vector_36" opacity="0.1" d="M32.3165 36.2532C32.8672 37.9868 33.3236 39.7494 33.6835 41.5333C33.7199 41.6987 33.7518 41.8596 33.7837 42.025C34.1093 43.7316 34.3465 45.4541 34.4945 47.1856L27.7645 49.4604L24.1649 50.6735L23.7092 52.6542C23.7092 52.6542 25.1309 52.8334 27.1676 52.985C28.407 53.0815 29.8697 53.1642 31.3824 53.201C33.6173 53.2968 35.8561 53.1722 38.0669 52.8288C39.23 51.7494 40.25 50.523 41.1015 49.18C39.976 44.5846 34.3077 36.7265 32.3165 36.2532Z" fill="white"/>
<path id="Vector_37" opacity="0.2" d="M37.4622 47.1534C35.7094 49.4369 33.6604 51.4725 31.3701 53.2055C29.8573 53.1688 28.3947 53.0861 27.1553 52.9896C26.9291 52.2455 26.8214 51.47 26.8363 50.6919L27.7476 49.4787L34.4776 47.204C34.3296 45.4725 34.0924 43.7499 33.7668 42.0433C33.7349 41.8779 33.703 41.717 33.6666 41.5516L33.703 41.5103C33.703 41.5103 36.7103 43.8125 37.4622 47.1534Z" fill="#081411"/>
<path id="Vector_38" d="M25.1772 49.58C25.1772 49.58 23.1222 47.9119 22.3202 47.6592C21.5183 47.4064 19.96 48.6196 19.96 48.6196L21.9648 51.5055L25.1772 49.58Z" fill="#EBB376"/>
<path id="Vector_39" d="M34.4074 49.2263L37.4648 47.1538C37.4648 47.1538 35.1592 45.4857 34.8585 45.4351C34.5578 45.3846 33.0359 47.1538 33.0359 47.1538L34.4074 49.2263Z" fill="#EBB376"/>
<path id="Vector_40" d="M14.0626 37.7421C11.0872 39.2127 15.343 53.4538 19.0338 56.3489C22.7246 59.244 35.2459 49.2031 35.2459 49.2031L33.3549 46.5285C33.3549 46.5285 23.5721 49.9889 22.2871 49.6488C21.0022 49.3088 17.5483 41.9239 16.4229 40.2145C15.6825 39.1317 14.7342 38.2098 13.6343 37.5032" fill="#263238"/>
<path id="Vector_41" opacity="0.1" d="M14.0626 37.7421C11.0872 39.2127 15.343 53.4538 19.0338 56.3489C22.7246 59.244 35.2459 49.2031 35.2459 49.2031L33.3549 46.5285C33.3549 46.5285 23.5721 49.9889 22.2871 49.6488C21.0022 49.3088 17.5483 41.9239 16.4229 40.2145C15.6825 39.1317 14.7342 38.2098 13.6343 37.5032" fill="white"/>
</g>
<path id="Vector_42" d="M68.6534 30.8258H51.7441C51.1656 30.8246 50.6112 30.5923 50.2021 30.1797C49.7931 29.7672 49.5627 29.208 49.5615 28.6246C49.5627 28.0416 49.7932 27.4829 50.2024 27.0711C50.6116 26.6593 51.166 26.428 51.7441 26.428H68.6534C69.231 26.428 69.785 26.6594 70.1935 27.0714C70.6019 27.4833 70.8314 28.042 70.8314 28.6246C70.8314 29.2076 70.6021 29.7668 70.1938 30.1794C69.7854 30.5921 69.2315 30.8246 68.6534 30.8258Z" fill="#E8B132"/>
<path id="Vector_43" d="M76.3607 36.0281H50.3884C50.1661 36.0281 49.9528 35.939 49.7956 35.7804C49.6384 35.6218 49.55 35.4068 49.55 35.1825C49.55 35.0717 49.5718 34.962 49.614 34.8596C49.6561 34.7573 49.718 34.6644 49.7959 34.5862C49.8738 34.5081 49.9663 34.4463 50.0679 34.4043C50.1696 34.3623 50.2786 34.341 50.3884 34.3416H76.3607C76.4706 34.341 76.5795 34.3623 76.6812 34.4043C76.7829 34.4463 76.8753 34.5081 76.9532 34.5862C77.0312 34.6644 77.093 34.7573 77.1352 34.8596C77.1774 34.962 77.1991 35.0717 77.1991 35.1825C77.1991 35.4068 77.1108 35.6218 76.9535 35.7804C76.7963 35.939 76.583 36.0281 76.3607 36.0281Z" fill="#E8B132"/>
<path id="Vector_44" d="M65.3454 39.9526H50.3999C50.29 39.9532 50.1811 39.9319 50.0794 39.8899C49.9777 39.8479 49.8853 39.7861 49.8074 39.7079C49.7294 39.6298 49.6676 39.5369 49.6254 39.4345C49.5832 39.3322 49.5615 39.2225 49.5615 39.1117C49.5615 38.8874 49.6499 38.6723 49.8071 38.5138C49.9643 38.3552 50.1776 38.2661 50.3999 38.2661H65.3454C65.4552 38.2661 65.564 38.288 65.6655 38.3306C65.767 38.3731 65.8591 38.4355 65.9366 38.514C66.0141 38.5926 66.0754 38.6859 66.117 38.7884C66.1587 38.891 66.1798 39.0008 66.1792 39.1117C66.1792 39.2221 66.1576 39.3315 66.1157 39.4335C66.0738 39.5355 66.0124 39.6282 65.935 39.7063C65.8575 39.7844 65.7656 39.8463 65.6644 39.8886C65.5633 39.9309 65.4549 39.9526 65.3454 39.9526Z" fill="#E8B132"/>
<path id="Vector_45" opacity="0.2" d="M58.1665 50.292H51.5959C51.3279 50.2938 51.0622 50.2421 50.814 50.1399C50.5659 50.0377 50.3403 49.8871 50.1501 49.6966C49.9599 49.5061 49.809 49.2795 49.706 49.0299C49.6031 48.7804 49.55 48.5127 49.55 48.2424C49.55 47.6988 49.7642 47.1775 50.1453 46.7932C50.5264 46.4088 51.0433 46.1929 51.5823 46.1929H58.1528C58.4198 46.1923 58.6844 46.2449 58.9312 46.3477C59.178 46.4504 59.4023 46.6014 59.5911 46.7918C59.7799 46.9823 59.9296 47.2084 60.0315 47.4574C60.1334 47.7063 60.1856 47.9731 60.185 48.2424C60.185 48.7836 59.9728 49.3028 59.5946 49.6868C59.2164 50.0708 58.7031 50.2883 58.1665 50.292Z" fill="#081411"/>
<path id="Vector_46" d="M34.7242 63.1821H5.04297V138.193H34.7242V63.1821Z" fill="#E8B132"/>
<g id="Group" opacity="0.3">
<path id="Vector_47" d="M26.9229 82.9978H10.0637C9.95365 82.9978 9.84462 82.9759 9.7429 82.9334C9.64118 82.8909 9.54876 82.8287 9.4709 82.7501C9.39305 82.6716 9.33129 82.5784 9.28916 82.4758C9.24703 82.3732 9.22534 82.2633 9.22534 82.1523C9.22534 82.0414 9.24706 81.9317 9.28925 81.8294C9.33144 81.727 9.39327 81.6341 9.47118 81.556C9.5491 81.4778 9.64156 81.416 9.74325 81.374C9.84494 81.332 9.95386 81.3107 10.0637 81.3113H26.9229C27.0328 81.3107 27.1417 81.332 27.2434 81.374C27.3451 81.416 27.4376 81.4778 27.5155 81.556C27.5934 81.6341 27.6552 81.727 27.6974 81.8294C27.7396 81.9317 27.7613 82.0414 27.7613 82.1523C27.7613 82.3765 27.673 82.5916 27.5158 82.7501C27.3585 82.9087 27.1453 82.9978 26.9229 82.9978Z" fill="white"/>
<path id="Vector_48" d="M20.468 86.9221H10.0791C9.85677 86.9221 9.64352 86.833 9.48629 86.6745C9.32905 86.5159 9.24072 86.3008 9.24072 86.0766C9.24072 85.9657 9.26244 85.856 9.30463 85.7537C9.34682 85.6513 9.40865 85.5584 9.48656 85.4803C9.56448 85.4021 9.65694 85.3403 9.75863 85.2983C9.86032 85.2563 9.96924 85.235 10.0791 85.2356H20.468C20.6896 85.2356 20.9022 85.3241 21.0593 85.4816C21.2164 85.6392 21.3052 85.8531 21.3064 86.0766C21.3064 86.3008 21.2181 86.5159 21.0609 86.6745C20.9036 86.833 20.6904 86.9221 20.468 86.9221Z" fill="white"/>
</g>
<g id="Group_2" opacity="0.3">
<path id="Vector_49" d="M22.3664 94.7383H10.0637C9.84139 94.7383 9.62814 94.6492 9.4709 94.4906C9.31367 94.3321 9.22534 94.117 9.22534 93.8927C9.22534 93.7819 9.24706 93.6722 9.28925 93.5698C9.33144 93.4675 9.39327 93.3746 9.47118 93.2964C9.5491 93.2183 9.64156 93.1564 9.74325 93.1145C9.84494 93.0725 9.95386 93.0512 10.0637 93.0518H22.3664C22.4763 93.0512 22.5852 93.0725 22.6869 93.1145C22.7886 93.1564 22.881 93.2183 22.959 93.2964C23.0369 93.3746 23.0987 93.4675 23.1409 93.5698C23.1831 93.6722 23.2048 93.7819 23.2048 93.8927C23.2048 94.117 23.1165 94.3321 22.9592 94.4906C22.802 94.6492 22.5887 94.7383 22.3664 94.7383Z" fill="white"/>
<path id="Vector_50" d="M25.0246 98.6626H10.0791C9.96925 98.6632 9.86032 98.6419 9.75863 98.5999C9.65694 98.5579 9.56448 98.4961 9.48656 98.4179C9.40865 98.3397 9.34682 98.2468 9.30463 98.1445C9.26244 98.0422 9.24072 97.9324 9.24072 97.8216C9.24072 97.5974 9.32905 97.3823 9.48629 97.2237C9.64352 97.0652 9.85677 96.9761 10.0791 96.9761H25.0246C25.2469 96.9761 25.4602 97.0652 25.6174 97.2237C25.7746 97.3823 25.863 97.5974 25.863 97.8216C25.8618 98.0451 25.7729 98.259 25.6158 98.4166C25.4587 98.5741 25.2461 98.6626 25.0246 98.6626Z" fill="white"/>
</g>
<g id="Group_3" opacity="0.3">
<path id="Vector_51" d="M26.9229 106.48H10.0637C9.95386 106.481 9.84494 106.459 9.74325 106.417C9.64156 106.375 9.5491 106.313 9.47118 106.235C9.39327 106.157 9.33144 106.064 9.28925 105.962C9.24706 105.86 9.22534 105.75 9.22534 105.639C9.22534 105.415 9.31367 105.2 9.4709 105.041C9.62814 104.883 9.84139 104.793 10.0637 104.793H26.9229C27.1453 104.793 27.3585 104.883 27.5158 105.041C27.673 105.2 27.7613 105.415 27.7613 105.639C27.7613 105.75 27.7396 105.86 27.6974 105.962C27.6552 106.064 27.5934 106.157 27.5155 106.235C27.4376 106.313 27.3451 106.375 27.2434 106.417C27.1417 106.459 27.0328 106.481 26.9229 106.48Z" fill="white"/>
<path id="Vector_52" d="M15.9115 110.409H10.0791C9.85677 110.409 9.64352 110.32 9.48629 110.161C9.32905 110.003 9.24072 109.788 9.24072 109.563C9.24072 109.453 9.26244 109.343 9.30463 109.241C9.34682 109.138 9.40865 109.045 9.48656 108.967C9.56448 108.889 9.65694 108.827 9.75863 108.785C9.86032 108.743 9.96924 108.722 10.0791 108.722H15.9115C16.1331 108.722 16.3456 108.811 16.5027 108.968C16.6598 109.126 16.7487 109.34 16.7499 109.563C16.7487 109.787 16.66 110.002 16.503 110.16C16.346 110.318 16.1335 110.408 15.9115 110.409Z" fill="white"/>
</g>
<g id="Group_4" opacity="0.3">
<path id="Vector_53" d="M17.8099 118.226H10.0637C9.95365 118.226 9.84462 118.204 9.7429 118.162C9.64118 118.119 9.54876 118.057 9.4709 117.978C9.39305 117.9 9.33129 117.807 9.28916 117.704C9.24703 117.602 9.22534 117.492 9.22534 117.381C9.22534 117.27 9.24706 117.16 9.28925 117.058C9.33144 116.955 9.39327 116.862 9.47118 116.784C9.5491 116.706 9.64156 116.644 9.74325 116.602C9.84494 116.56 9.95386 116.539 10.0637 116.54H17.8099C17.9197 116.539 18.0287 116.56 18.1303 116.602C18.232 116.644 18.3245 116.706 18.4024 116.784C18.4803 116.862 18.5422 116.955 18.5843 117.058C18.6265 117.16 18.6483 117.27 18.6483 117.381C18.6483 117.492 18.6266 117.602 18.5844 117.704C18.5423 117.807 18.4805 117.9 18.4027 117.978C18.3248 118.057 18.2324 118.119 18.1307 118.162C18.029 118.204 17.92 118.226 17.8099 118.226Z" fill="white"/>
<path id="Vector_54" d="M25.0246 122.137H10.0791C9.85677 122.137 9.64352 122.048 9.48629 121.889C9.32905 121.731 9.24072 121.515 9.24072 121.291C9.24072 121.18 9.26244 121.071 9.30463 120.968C9.34682 120.866 9.40865 120.773 9.48656 120.695C9.56448 120.617 9.65694 120.555 9.75863 120.513C9.86032 120.471 9.96925 120.45 10.0791 120.45H25.0246C25.2461 120.45 25.4587 120.539 25.6158 120.696C25.7729 120.854 25.8618 121.068 25.863 121.291C25.863 121.515 25.7746 121.731 25.6174 121.889C25.4602 122.048 25.2469 122.137 25.0246 122.137Z" fill="white"/>
</g>
<path id="Vector_55" opacity="0.3" d="M36.4062 138.197H80.8689L80.8689 63.1866H36.4062L36.4062 138.197Z" fill="white"/>
<g id="Group_5" opacity="0.2">
<path id="Vector_56" d="M43.4209 71.2513H55.7236C55.8385 71.2599 55.9541 71.2444 56.0629 71.2059C56.1717 71.1674 56.2714 71.1067 56.3559 71.0276C56.4404 70.9484 56.5078 70.8526 56.5539 70.746C56.5999 70.6394 56.6237 70.5243 56.6237 70.408C56.6237 70.2918 56.5999 70.1767 56.5539 70.0701C56.5078 69.9635 56.4404 69.8677 56.3559 69.7885C56.2714 69.7094 56.1717 69.6487 56.0629 69.6102C55.9541 69.5717 55.8385 69.5562 55.7236 69.5648H43.4209C43.3059 69.5562 43.1904 69.5717 43.0816 69.6102C42.9728 69.6487 42.8731 69.7094 42.7886 69.7885C42.7041 69.8677 42.6367 69.9635 42.5906 70.0701C42.5445 70.1767 42.5208 70.2918 42.5208 70.408C42.5208 70.5243 42.5445 70.6394 42.5906 70.746C42.6367 70.8526 42.7041 70.9484 42.7886 71.0276C42.8731 71.1067 42.9728 71.1674 43.0816 71.2059C43.1904 71.2444 43.3059 71.2599 43.4209 71.2513Z" fill="#081411"/>
<path id="Vector_57" d="M72.1089 78.1766H48.8706C48.7556 78.168 48.6401 78.1835 48.5313 78.222C48.4225 78.2605 48.3228 78.3212 48.2383 78.4003C48.1538 78.4795 48.0864 78.5754 48.0403 78.6819C47.9942 78.7885 47.9705 78.9036 47.9705 79.0199C47.9705 79.1362 47.9942 79.2512 48.0403 79.3578C48.0864 79.4644 48.1538 79.5603 48.2383 79.6394C48.3228 79.7185 48.4225 79.7793 48.5313 79.8177C48.6401 79.8562 48.7556 79.8717 48.8706 79.8631H72.1089C72.2239 79.8717 72.3394 79.8562 72.4482 79.8177C72.557 79.7793 72.6568 79.7185 72.7413 79.6394C72.8258 79.5603 72.8932 79.4644 72.9392 79.3578C72.9853 79.2512 73.0091 79.1362 73.0091 79.0199C73.0091 78.9036 72.9853 78.7885 72.9392 78.6819C72.8932 78.5754 72.8258 78.4795 72.7413 78.4003C72.6568 78.3212 72.557 78.2605 72.4482 78.222C72.3394 78.1835 72.2239 78.168 72.1089 78.1766Z" fill="#081411"/>
<path id="Vector_58" d="M43.4209 83.7877H72.0359C72.247 83.772 72.4444 83.6763 72.5885 83.5199C72.7325 83.3635 72.8126 83.1579 72.8126 82.9444C72.8126 82.731 72.7325 82.5254 72.5885 82.369C72.4444 82.2126 72.247 82.1169 72.0359 82.1012H43.4209C43.3059 82.0926 43.1904 82.1081 43.0816 82.1465C42.9728 82.185 42.8731 82.2458 42.7886 82.3249C42.7041 82.404 42.6367 82.4999 42.5906 82.6065C42.5445 82.7131 42.5208 82.8281 42.5208 82.9444C42.5208 83.0607 42.5445 83.1758 42.5906 83.2823C42.6367 83.3889 42.7041 83.4848 42.7886 83.564C42.8731 83.6431 42.9728 83.7038 43.0816 83.7423C43.1904 83.7808 43.3059 83.7962 43.4209 83.7877Z" fill="#081411"/>
<path id="Vector_59" d="M72.1117 86.7838H43.4055C43.2905 86.7752 43.175 86.7907 43.0662 86.8292C42.9574 86.8677 42.8577 86.9284 42.7732 87.0075C42.6887 87.0867 42.6213 87.1825 42.5752 87.2891C42.5292 87.3957 42.5054 87.5108 42.5054 87.627C42.5054 87.7433 42.5292 87.8584 42.5752 87.965C42.6213 88.0716 42.6887 88.1674 42.7732 88.2466C42.8577 88.3257 42.9574 88.3864 43.0662 88.4249C43.175 88.4634 43.2905 88.4789 43.4055 88.4703H72.1117C72.2267 88.4789 72.3422 88.4634 72.451 88.4249C72.5598 88.3864 72.6596 88.3257 72.744 88.2466C72.8285 88.1674 72.8959 88.0716 72.942 87.965C72.9881 87.8584 73.0119 87.7433 73.0119 87.627C73.0119 87.5108 72.9881 87.3957 72.942 87.2891C72.8959 87.1825 72.8285 87.0867 72.744 87.0075C72.6596 86.9284 72.5598 86.8677 72.451 86.8292C72.3422 86.7907 72.2267 86.7752 72.1117 86.7838Z" fill="#081411"/>
<path id="Vector_60" d="M43.4209 92.3993H72.0359C72.247 92.3835 72.4444 92.2879 72.5885 92.1315C72.7325 91.9751 72.8126 91.7695 72.8126 91.556C72.8126 91.3425 72.7325 91.137 72.5885 90.9805C72.4444 90.8241 72.247 90.7285 72.0359 90.7127H43.4209C43.3059 90.7042 43.1904 90.7196 43.0816 90.7581C42.9728 90.7966 42.8731 90.8573 42.7886 90.9365C42.7041 91.0156 42.6367 91.1115 42.5906 91.2181C42.5445 91.3247 42.5208 91.4397 42.5208 91.556C42.5208 91.6723 42.5445 91.7873 42.5906 91.8939C42.6367 92.0005 42.7041 92.0964 42.7886 92.1755C42.8731 92.2547 42.9728 92.3154 43.0816 92.3539C43.1904 92.3924 43.3059 92.4078 43.4209 92.3993Z" fill="#081411"/>
<path id="Vector_61" d="M72.1117 95.3956H43.4055C43.2905 95.387 43.175 95.4025 43.0662 95.441C42.9574 95.4795 42.8577 95.5402 42.7732 95.6193C42.6887 95.6985 42.6213 95.7943 42.5752 95.9009C42.5292 96.0075 42.5054 96.1226 42.5054 96.2389C42.5054 96.3551 42.5292 96.4702 42.5752 96.5768C42.6213 96.6834 42.6887 96.7793 42.7732 96.8584C42.8577 96.9375 42.9574 96.9982 43.0662 97.0367C43.175 97.0752 43.2905 97.0907 43.4055 97.0821H72.1117C72.2267 97.0907 72.3422 97.0752 72.451 97.0367C72.5598 96.9982 72.6596 96.9375 72.744 96.8584C72.8285 96.7793 72.8959 96.6834 72.942 96.5768C72.9881 96.4702 73.0119 96.3551 73.0119 96.2389C73.0119 96.1226 72.9881 96.0075 72.942 95.9009C72.8959 95.7943 72.8285 95.6985 72.744 95.6193C72.6596 95.5402 72.5598 95.4795 72.451 95.441C72.3422 95.4025 72.2267 95.387 72.1117 95.3956Z" fill="#081411"/>
<path id="Vector_62" d="M43.4209 100.997H65.6568C65.8679 100.982 66.0653 100.886 66.2093 100.73C66.3534 100.573 66.4334 100.368 66.4334 100.154C66.4334 99.9407 66.3534 99.7351 66.2093 99.5787C66.0653 99.4223 65.8679 99.3266 65.6568 99.3109H43.4209C43.3059 99.3023 43.1904 99.3178 43.0816 99.3563C42.9728 99.3948 42.8731 99.4555 42.7886 99.5346C42.7041 99.6138 42.6367 99.7096 42.5906 99.8162C42.5445 99.9228 42.5208 100.038 42.5208 100.154C42.5208 100.27 42.5445 100.385 42.5906 100.492C42.6367 100.599 42.7041 100.695 42.7886 100.774C42.8731 100.853 42.9728 100.914 43.0816 100.952C43.1904 100.991 43.3059 101.006 43.4209 100.997Z" fill="#081411"/>
<path id="Vector_63" d="M48.8863 109.614H72.0334C72.2445 109.598 72.4419 109.502 72.586 109.346C72.73 109.189 72.8101 108.984 72.8101 108.77C72.8101 108.557 72.73 108.351 72.586 108.195C72.4419 108.039 72.2445 107.943 72.0334 107.927H48.8863C48.7713 107.919 48.6557 107.934 48.5469 107.972C48.4381 108.011 48.3384 108.072 48.2539 108.151C48.1694 108.23 48.102 108.326 48.056 108.432C48.0099 108.539 47.9861 108.654 47.9861 108.77C47.9861 108.887 48.0099 109.002 48.056 109.108C48.102 109.215 48.1694 109.311 48.2539 109.39C48.3384 109.469 48.4381 109.53 48.5469 109.568C48.6557 109.607 48.7713 109.622 48.8863 109.614Z" fill="#081411"/>
<path id="Vector_64" d="M72.1117 112.615H43.4055C43.2905 112.606 43.175 112.621 43.0662 112.66C42.9574 112.698 42.8577 112.759 42.7732 112.838C42.6887 112.917 42.6213 113.013 42.5752 113.12C42.5292 113.227 42.5054 113.342 42.5054 113.458C42.5054 113.574 42.5292 113.689 42.5752 113.796C42.6213 113.902 42.6887 113.998 42.7732 114.077C42.8577 114.157 42.9574 114.217 43.0662 114.256C43.175 114.294 43.2905 114.31 43.4055 114.301H72.1117C72.2267 114.31 72.3422 114.294 72.451 114.256C72.5598 114.217 72.6596 114.157 72.744 114.077C72.8285 113.998 72.8959 113.902 72.942 113.796C72.9881 113.689 73.0119 113.574 73.0119 113.458C73.0119 113.342 72.9881 113.227 72.942 113.12C72.8959 113.013 72.8285 112.917 72.744 112.838C72.6596 112.759 72.5598 112.698 72.451 112.66C72.3422 112.621 72.2267 112.606 72.1117 112.615Z" fill="#081411"/>
<path id="Vector_65" d="M43.4209 118.225H72.0359C72.247 118.21 72.4444 118.114 72.5885 117.958C72.7325 117.801 72.8126 117.596 72.8126 117.382C72.8126 117.169 72.7325 116.963 72.5885 116.807C72.4444 116.65 72.247 116.555 72.0359 116.539H43.4209C43.3059 116.53 43.1904 116.546 43.0816 116.584C42.9728 116.623 42.8731 116.684 42.7886 116.763C42.7041 116.842 42.6367 116.938 42.5906 117.044C42.5445 117.151 42.5208 117.266 42.5208 117.382C42.5208 117.498 42.5445 117.613 42.5906 117.72C42.6367 117.827 42.7041 117.923 42.7886 118.002C42.8731 118.081 42.9728 118.142 43.0816 118.18C43.1904 118.219 43.3059 118.234 43.4209 118.225Z" fill="#081411"/>
<path id="Vector_66" d="M66.1882 121.217H43.4055C43.2905 121.209 43.175 121.224 43.0662 121.263C42.9574 121.301 42.8577 121.362 42.7732 121.441C42.6887 121.52 42.6213 121.616 42.5752 121.722C42.5292 121.829 42.5054 121.944 42.5054 122.06C42.5054 122.177 42.5292 122.292 42.5752 122.398C42.6213 122.505 42.6887 122.601 42.7732 122.68C42.8577 122.759 42.9574 122.82 43.0662 122.858C43.175 122.897 43.2905 122.912 43.4055 122.904H66.1882C66.3032 122.912 66.4187 122.897 66.5275 122.858C66.6363 122.82 66.7361 122.759 66.8205 122.68C66.905 122.601 66.9724 122.505 67.0185 122.398C67.0646 122.292 67.0884 122.177 67.0884 122.06C67.0884 121.944 67.0646 121.829 67.0185 121.722C66.9724 121.616 66.905 121.52 66.8205 121.441C66.7361 121.362 66.6363 121.301 66.5275 121.263C66.4187 121.224 66.3032 121.209 66.1882 121.217Z" fill="#081411"/>
<path id="Vector_67" d="M72.1117 129.834H43.4055C43.2905 129.825 43.175 129.84 43.0662 129.879C42.9574 129.917 42.8577 129.978 42.7732 130.057C42.6887 130.136 42.6213 130.232 42.5752 130.339C42.5292 130.446 42.5054 130.561 42.5054 130.677C42.5054 130.793 42.5292 130.908 42.5752 131.015C42.6213 131.121 42.6887 131.217 42.7732 131.296C42.8577 131.376 42.9574 131.436 43.0662 131.475C43.175 131.513 43.2905 131.529 43.4055 131.52H72.1117C72.2267 131.529 72.3422 131.513 72.451 131.475C72.5598 131.436 72.6596 131.376 72.744 131.296C72.8285 131.217 72.8959 131.121 72.942 131.015C72.9881 130.908 73.0119 130.793 73.0119 130.677C73.0119 130.561 72.9881 130.446 72.942 130.339C72.8959 130.232 72.8285 130.136 72.744 130.057C72.6596 129.978 72.5598 129.917 72.451 129.879C72.3422 129.84 72.2267 129.825 72.1117 129.834Z" fill="#081411"/>
</g>
<g id="Group_6" opacity="0.3">
<path id="Vector_68" d="M22.3664 71.2517H10.0637C9.95386 71.2523 9.84494 71.231 9.74325 71.189C9.64156 71.147 9.5491 71.0852 9.47118 71.007C9.39327 70.9289 9.33144 70.836 9.28925 70.7336C9.24706 70.6313 9.22534 70.5216 9.22534 70.4107C9.22534 70.2997 9.24703 70.1897 9.28916 70.0872C9.33129 69.9846 9.39305 69.8914 9.4709 69.8128C9.54876 69.7343 9.64118 69.672 9.7429 69.6295C9.84462 69.5871 9.95365 69.5652 10.0637 69.5652H22.3664C22.5887 69.5652 22.802 69.6543 22.9592 69.8128C23.1165 69.9714 23.2048 70.1865 23.2048 70.4107C23.2048 70.5216 23.1831 70.6313 23.1409 70.7336C23.0987 70.836 23.0369 70.9289 22.959 71.007C22.881 71.0852 22.7886 71.147 22.6869 71.189C22.5852 71.231 22.4763 71.2523 22.3664 71.2517Z" fill="white"/>
<path id="Vector_69" d="M15.9115 75.1807H10.0791C9.85677 75.1807 9.64352 75.0916 9.48629 74.933C9.32905 74.7744 9.24072 74.5594 9.24072 74.3351C9.24072 74.2243 9.26244 74.1146 9.30463 74.0122C9.34682 73.9099 9.40865 73.817 9.48656 73.7388C9.56448 73.6607 9.65694 73.5988 9.75863 73.5568C9.86032 73.5149 9.96924 73.4935 10.0791 73.4942H15.9115C16.1331 73.4966 16.3447 73.5874 16.5001 73.7467C16.6554 73.906 16.742 74.1208 16.7408 74.3443C16.7373 74.565 16.6488 74.7757 16.494 74.9318C16.3392 75.0879 16.1303 75.1771 15.9115 75.1807Z" fill="white"/>
</g>
</g>
</g>
</svg>
