<svg width="9" height="12" viewBox="0 0 9 12" fill="none" xmlns="http://www.w3.org/2000/svg">
<path id="Vector" fill-rule="evenodd" clip-rule="evenodd" d="M0.33449 10.1666L6.58449 5.99998L0.33449 1.83331C0.252414 1.77859 0.181919 1.70824 0.12703 1.62628C0.0721406 1.54432 0.0339326 1.45235 0.014587 1.35562C-0.00475849 1.2589 -0.00486286 1.15931 0.0142803 1.06254C0.0334234 0.965769 0.0714392 0.873719 0.126157 0.791643C0.236663 0.625883 0.408492 0.51081 0.603842 0.47174C0.70057 0.452395 0.800161 0.45229 0.896929 0.471434C0.993697 0.490577 1.08575 0.528592 1.16782 0.58331L8.25282 5.30664C8.36696 5.38275 8.46053 5.48585 8.52526 5.60679C8.58998 5.72774 8.62384 5.8628 8.62384 5.99998C8.62384 6.13715 8.58998 6.27221 8.52526 6.39316C8.46053 6.51411 8.36696 6.61721 8.25282 6.69331L1.16782 11.4166C1.08575 11.4714 0.993697 11.5094 0.896929 11.5285C0.800161 11.5477 0.70057 11.5476 0.603842 11.5282C0.507115 11.5089 0.415145 11.4707 0.333183 11.4158C0.251222 11.3609 0.180874 11.2904 0.126157 11.2083C0.0714392 11.1262 0.0334234 11.0342 0.0142803 10.9374C-0.00486286 10.8406 -0.00475849 10.7411 0.014587 10.6443C0.0339326 10.5476 0.0721406 10.4556 0.12703 10.3737C0.181919 10.2917 0.252414 10.2214 0.33449 10.1666Z" fill="#286256"/>
</svg>
